#!OML:ASF G:\JayActor3\Patient Classification 1\Patient 1\Session 6\male.ASF
:FULLY-SPECIFIED
:DEGREES
1569
root -0.668444 14.9733 -2.56828 384.939 -79.9458 -362.215
lowerback 38.436 -0.0939587 -1.66428
upperback 14.3613 -2.39717 -1.15235
thorax -2.88519 -1.78531 0.508327
lowerneck 4.72605 -10.2326 -3.66738
upperneck -41.8218 -12.7026 18.3659
head -13.2067 -9.03688 9.8952
rclavicle -1.59028e-015 -1.27222e-014
rhumerus 1.62644 20.8073 -68.0261
rradius 104.281
rwrist 10.7371
rhand -46.3134 4.83587
rfingers 7.12502
rthumb -19.0471 -24.2515
lclavicle -1.59028e-015 -1.27222e-014
lhumerus 2.20959 -12.5631 61.4045
lradius 97.4722
lwrist 18.5055
lhand -22.6755 11.3433
lfingers 7.12502
lthumb 3.75649 41.29
rfemur -65.7471 -11.9033 29.0523
rtibia 70.896
rfoot -30.0906 -20.7586
rtoes -2.0479
lfemur -63.748 10.1874 -22.3841
ltibia 62.3885
lfoot -19.3624 -1.56007
ltoes 1.39176
1570
root -0.67053 14.9732 -2.56947 385.161 -80.0321 -362.425
lowerback 38.3929 -0.126111 -1.66166
upperback 14.3082 -2.42846 -1.15244
thorax -2.92961 -1.79754 0.518513
lowerneck 4.6948 -10.2353 -3.65112
upperneck -41.9339 -12.7144 18.4049
head -13.2477 -9.05767 9.92785
rclavicle -1.59028e-015 -1.03368e-014
rhumerus 1.57681 20.869 -68.1328
rradius 104.199
rwrist 10.7358
rhand -46.3006 4.83866
rfingers 7.12502
rthumb -19.0348 -24.2499
lclavicle -1.59028e-015 -1.03368e-014
lhumerus 1.64519 -12.3296 61.4537
lradius 97.4978
lwrist 18.469
lhand -22.6386 11.288
lfingers 7.12502
lthumb 3.79208 41.234
rfemur -65.7123 -11.8918 29.0995
rtibia 70.8245
rfoot -30.0759 -20.6741
rtoes -2.10996
lfemur -63.7456 10.2174 -22.3393
ltibia 62.4071
lfoot -19.4285 -1.47861
ltoes 1.32091
1571
root -0.673116 14.9739 -2.57094 385.402 -80.1203 -362.66
lowerback 38.3464 -0.158588 -1.65415
upperback 14.2587 -2.45881 -1.15215
thorax -2.96926 -1.80938 0.526064
lowerneck 4.66891 -10.2383 -3.64401
upperneck -42.0318 -12.7225 18.455
head -13.2816 -9.07656 9.96396
rclavicle -2.3059e-014 -2.10712e-014
rhumerus 1.53345 20.9308 -68.2308
rradius 104.127
rwrist 10.7379
rhand -46.2991 4.85541
rfingers 7.12502
rthumb -19.0333 -24.2333
lclavicle -2.3059e-014 -2.10712e-014
lhumerus 1.05284 -12.0682 61.5136
lradius 97.5232
lwrist 18.4277
lhand -22.5762 11.2332
lfingers 7.12502
lthumb 3.85239 41.1782
rfemur -65.6648 -11.8706 29.1468
rtibia 70.7437
rfoot -30.0588 -20.6047
rtoes -2.18684
lfemur -63.7365 10.2568 -22.2936
ltibia 62.4233
lfoot -19.4906 -1.40061
ltoes 1.25417
1572
root -0.675983 14.975 -2.57261 385.7 -80.2074 -362.954
lowerback 38.2985 -0.192718 -1.6323
upperback 14.2138 -2.4868 -1.15108
thorax -3.00373 -1.81993 0.526051
lowerneck 4.64707 -10.2397 -3.63877
upperneck -42.1148 -12.7242 18.5099
head -13.3097 -9.09238 9.99957
rclavicle -4.92986e-014 -3.65764e-014
rhumerus 1.50053 20.9861 -68.32
rradius 104.061
rwrist 10.7457
rhand -46.3031 4.86835
rfingers 7.12502
rthumb -19.0372 -24.22
lclavicle -4.92986e-014 -3.65764e-014
lhumerus 0.439735 -11.7817 61.5811
lradius 97.5456
lwrist 18.397
lhand -22.5027 11.1963
lfingers 7.12502
lthumb 3.92334 41.1399
rfemur -65.6055 -11.838 29.2002
rtibia 70.6556
rfoot -30.0465 -20.5468
rtoes -2.26046
lfemur -63.7237 10.304 -22.2383
ltibia 62.4401
lfoot -19.5465 -1.32628
ltoes 1.17949
1573
root -0.678464 14.976 -2.57498 385.987 -80.2798 -363.235
lowerback 38.2517 -0.232723 -1.60286
upperback 14.1697 -2.51872 -1.14526
thorax -3.03772 -1.83218 0.528428
lowerneck 4.61936 -10.2419 -3.6294
upperneck -42.1753 -12.7257 18.5591
head -13.3273 -9.10723 10.0273
rclavicle 1.03368e-014 -5.56597e-015
rhumerus 1.48347 21.0355 -68.3936
rradius 103.999
rwrist 10.7523
rhand -46.3095 4.88001
rfingers 7.12502
rthumb -19.0434 -24.2077
lclavicle 1.03368e-014 -5.56597e-015
lhumerus -0.197448 -11.4687 61.663
lradius 97.5619
lwrist 18.3797
lhand -22.4153 11.1738
lfingers 7.12502
lthumb 4.00775 41.1159
rfemur -65.5544 -11.8052 29.2552
rtibia 70.5704
rfoot -30.0422 -20.5045
rtoes -2.31563
lfemur -63.7227 10.3407 -22.1794
ltibia 62.4624
lfoot -19.5894 -1.25722
ltoes 1.10647
1574
root -0.680698 14.9767 -2.57788 386.24 -80.3419 -363.477
lowerback 38.2052 -0.278316 -1.57026
upperback 14.1271 -2.55608 -1.13759
thorax -3.06997 -1.84698 0.532928
lowerneck 4.59346 -10.244 -3.61187
upperneck -42.2208 -12.7263 18.6006
head -13.3401 -9.12115 10.0479
rclavicle -1.59028e-014 2.46493e-014
rhumerus 1.48571 21.0803 -68.4529
rradius 103.938
rwrist 10.7526
rhand -46.315 4.88198
rfingers 7.12502
rthumb -19.0487 -24.2052
lclavicle -1.59028e-014 2.46493e-014
lhumerus -0.859148 -11.1263 61.7551
lradius 97.5735
lwrist 18.3833
lhand -22.3415 11.1381
lfingers 7.12502
lthumb 4.07899 41.0788
rfemur -65.5116 -11.7724 29.3058
rtibia 70.4913
rfoot -30.0509 -20.4711
rtoes -2.34194
lfemur -63.7343 10.3656 -22.1216
ltibia 62.4941
lfoot -19.6186 -1.18979
ltoes 1.0081
1575
root -0.682698 14.9769 -2.58126 386.444 -80.3877 -363.661
lowerback 38.1535 -0.332812 -1.53239
upperback 14.0859 -2.6016 -1.12748
thorax -3.09908 -1.86542 0.539893
lowerneck 4.57737 -10.2451 -3.58757
upperneck -42.2536 -12.7246 18.6341
head -13.3512 -9.13308 10.0631
rclavicle 3.97569e-014 5.80451e-014
rhumerus 1.50444 21.121 -68.4997
rradius 103.878
rwrist 10.7498
rhand -46.3184 4.87796
rfingers 7.12502
rthumb -19.0519 -24.2089
lclavicle 3.97569e-014 5.80451e-014
lhumerus -1.54858 -10.7542 61.8576
lradius 97.5842
lwrist 18.4105
lhand -22.285 11.0934
lfingers 7.12502
lthumb 4.13359 41.033
rfemur -65.4828 -11.7453 29.3525
rtibia 70.4207
rfoot -30.0711 -20.4517
rtoes -2.35802
lfemur -63.7645 10.3697 -22.0638
ltibia 62.5381
lfoot -19.6295 -1.12684
ltoes 0.899046
1576
root -0.684787 14.9769 -2.58492 386.609 -80.4238 -363.802
lowerback 38.0962 -0.393984 -1.49319
upperback 14.0477 -2.65437 -1.1155
thorax -3.12293 -1.8874 0.550365
lowerneck 4.57739 -10.2433 -3.56192
upperneck -42.277 -12.7183 18.6614
head -13.3631 -9.14141 10.0755
rclavicle -2.06736e-014 6.36111e-015
rhumerus 1.54404 21.164 -68.53
rradius 103.817
rwrist 10.739
rhand -46.3194 4.85535
rfingers 7.12502
rthumb -19.0528 -24.2315
lclavicle -2.06736e-014 6.36111e-015
lhumerus -2.26448 -10.345 61.968
lradius 97.5954
lwrist 18.4536
lhand -22.2458 11.0696
lfingers 7.12502
lthumb 4.17146 41.0085
rfemur -65.4596 -11.7197 29.3938
rtibia 70.3542
rfoot -30.1048 -20.4406
rtoes -2.36091
lfemur -63.8104 10.3609 -22.006
ltibia 62.597
lfoot -19.6171 -1.07212
ltoes 0.782206
1577
root -0.687295 14.9781 -2.58854 386.723 -80.4568 -363.891
lowerback 38.0357 -0.459202 -1.45506
upperback 14.0129 -2.71266 -1.10479
thorax -3.1418 -1.91213 0.561721
lowerneck 4.60298 -10.2365 -3.53632
upperneck -42.2931 -12.7039 18.6822
head -13.3791 -9.14399 10.0868
rclavicle -4.29375e-014 3.02153e-014
rhumerus 1.59789 21.2076 -68.5499
rradius 103.758
rwrist 10.7259
rhand -46.3153 4.82879
rfingers 7.12502
rthumb -19.0489 -24.2584
lclavicle -4.29375e-014 3.02153e-014
lhumerus -3.00789 -9.90182 62.0861
lradius 97.6153
lwrist 18.514
lhand -22.2238 11.0808
lfingers 7.12502
lthumb 4.19265 41.0193
rfemur -65.4274 -11.696 29.4242
rtibia 70.2798
rfoot -30.1397 -20.4427
rtoes -2.37706
lfemur -63.8603 10.3434 -21.9521
ltibia 62.6671
lfoot -19.5749 -1.02956
ltoes 0.661361
1578
root -0.690579 14.9807 -2.59205 386.814 -80.497 -363.961
lowerback 37.9722 -0.521154 -1.42246
upperback 13.9843 -2.76978 -1.09515
thorax -3.15284 -1.9369 0.574083
lowerneck 4.65374 -10.2257 -3.51702
upperneck -42.2977 -12.682 18.7007
head -13.3959 -9.14067 10.0984
rclavicle -4.21423e-014 -2.14687e-014
rhumerus 1.66528 21.2502 -68.5583
rradius 103.697
rwrist 10.7123
rhand -46.3134 4.79763
rfingers 7.12502
rthumb -19.0471 -24.2897
lclavicle -4.21423e-014 -2.14687e-014
lhumerus -3.77306 -9.42749 62.2112
lradius 97.6497
lwrist 18.5876
lhand -22.2173 11.1413
lfingers 7.12502
lthumb 4.19891 41.0797
rfemur -65.3763 -11.6651 29.4438
rtibia 70.1888
rfoot -30.1735 -20.453
rtoes -2.39456
lfemur -63.9115 10.3271 -21.8996
ltibia 62.7525
lfoot -19.4954 -0.995835
ltoes 0.527248
1579
root -0.695121 14.9859 -2.5954 386.913 -80.5527 -364.06
lowerback 37.9233 -0.572296 -1.3968
upperback 13.9654 -2.8187 -1.08545
thorax -3.1578 -1.95895 0.58728
lowerneck 4.71756 -10.2144 -3.50878
upperneck -42.2838 -12.6575 18.7192
head -13.4061 -9.13348 10.1093
rclavicle 4.53229e-014 2.54444e-014
rhumerus 1.74468 21.2877 -68.5539
rradius 103.64
rwrist 10.6944
rhand -46.3106 4.77807
rfingers 7.12502
rthumb -19.0444 -24.3096
lclavicle 4.53229e-014 2.54444e-014
lhumerus -4.55112 -8.92224 62.3452
lradius 97.7009
lwrist 18.6606
lhand -22.2061 11.266
lfingers 7.12502
lthumb 4.2098 41.2041
rfemur -65.2784 -11.6196 29.4529
rtibia 70.0699
rfoot -30.2026 -20.4711
rtoes -2.42016
lfemur -63.9483 10.3311 -21.8457
ltibia 62.8595
lfoot -19.3696 -0.973772
ltoes 0.339763
1580
root -0.700891 14.9936 -2.59841 387.064 -80.6217 -364.227
lowerback 37.8836 -0.612134 -1.36895
upperback 13.9582 -2.85566 -1.07571
thorax -3.15297 -1.97623 0.595082
lowerneck 4.78752 -10.205 -3.50648
upperneck -42.2508 -12.6331 18.7388
head -13.4078 -9.12477 10.1182
rclavicle 9.54166e-015 -5.96354e-015
rhumerus 1.83489 21.311 -68.5369
rradius 103.586
rwrist 10.6708
rhand -46.3087 4.76654
rfingers 7.12502
rthumb -19.0426 -24.3213
lclavicle 9.54166e-015 -5.96354e-015
lhumerus -5.32785 -8.38984 62.4837
lradius 97.7693
lwrist 18.7465
lhand -22.1764 11.4297
lfingers 7.12502
lthumb 4.23844 41.3673
rfemur -65.1371 -11.5602 29.4602
rtibia 69.9208
rfoot -30.2245 -20.4922
rtoes -2.44002
lfemur -63.988 10.3575 -21.7873
ltibia 63.0047
lfoot -19.1849 -0.962635
ltoes 0.0738262
